Coordinates
version=1
nRows=14
nColumns=40
inDegrees=yes

Units are S.I. units (second, meters, Newtons, ...)
If the header above contains a line with 'inDegrees', this indicates whether rotational values are in degrees (yes) or radians (no).

endheader
time	pelvis_tilt	pelvis_list	pelvis_rotation	pelvis_tx	pelvis_ty	pelvis_tz	hip_flexion_r	hip_adduction_r	hip_rotation_r	knee_angle_r	knee_angle_r_beta	ankle_angle_r	subtalar_angle_r	mtp_angle_r	hip_flexion_l	hip_adduction_l	hip_rotation_l	knee_angle_l	knee_angle_l_beta	ankle_angle_l	subtalar_angle_l	mtp_angle_l	lumbar_extension	lumbar_bending	lumbar_rotation	arm_flex_r	arm_add_r	arm_rot_r	elbow_flex_r	pro_sup_r	wrist_flex_r	wrist_dev_r	arm_flex_l	arm_add_l	arm_rot_l	elbow_flex_l	pro_sup_l	wrist_flex_l	wrist_dev_l
      1.27500000	    -17.00617707	     11.31549670	     -9.31897340	      1.19082345	      0.68275105	      0.16421784	    -18.02706355	    -23.44535167	     -5.14447317	     30.24738647	      0.52791648	    -39.75656573	      0.00000000	      0.00000000	     81.08341547	     -0.40112766	      0.20013808	     35.31294621	      0.61632718	    -38.02116551	      0.00000000	      0.00000000	     12.93910020	    -23.22247966	    -14.75249884	    -89.98492436	      0.02283131	    -89.67129052	      0.02733715	      0.24659662	      0.00000000	      0.00000000	      1.66292975	    -70.67320129	     10.84300069	    115.73985404	      6.76088823	      0.00000000	      0.00000000
      1.27777778	    -19.19949997	     11.87561264	     -6.41370379	      1.19663722	      0.68045355	      0.16302261	    -17.48419621	    -22.86269321	     -7.85386985	     29.78411223	      0.51983082	    -39.75598854	      0.00000000	      0.00000000	     83.05761804	      1.90020895	      0.06274054	     35.11323908	      0.61284163	    -37.88577229	      0.00000000	      0.00000000	     14.26845562	    -25.26625526	    -13.96123639	    -89.98343968	      0.93563550	    -89.66398479	      0.02658090	      0.24298143	      0.00000000	      0.00000000	      9.62769408	    -68.29182554	     18.78981701	    114.34095121	      7.13655801	      0.00000000	      0.00000000
      1.28055556	    -21.60672666	     12.66695286	     -3.62644155	      1.20218797	      0.67829091	      0.16200068	    -16.50451710	    -22.69988760	    -10.35722531	     29.52975673	      0.51539148	    -39.75360405	      0.00000000	      0.00000000	     85.05161122	      4.07196900	     -0.58707066	     34.63944067	      0.60457229	    -37.81560654	      0.00000000	      0.00000000	     15.82262438	    -27.67614857	    -12.97802274	    -89.98152977	      1.53710093	    -89.65739468	      0.02598629	      0.24131226	      0.00000000	      0.00000000	     15.58629110	    -65.81629970	     24.81278121	    113.07432541	      7.24308701	      0.00000000	      0.00000000
      1.28333333	    -23.23686985	     12.72824319	     -1.81766098	      1.20571099	      0.67680040	      0.16141068	    -15.74964288	    -22.16538393	    -11.73553590	     29.37179334	      0.51263450	    -39.75110303	      0.00000000	      0.00000000	     86.36498812	      5.35183686	     -0.73724376	     34.33535194	      0.59926494	    -37.78247846	      0.00000000	      0.00000000	     16.75960321	    -28.85948549	    -12.30697017	    -89.97995588	      1.88799636	    -89.65331791	      0.02579118	      0.24045792	      0.00000000	      0.00000000	     19.20787595	    -63.96563745	     28.48863251	    112.13192762	      7.54158667	      0.00000000	      0.00000000
      1.28611111	    -25.84482256	     12.74440091	      0.60860909	      1.21067819	      0.67453532	      0.16091878	    -14.18769794	    -21.51770487	    -13.50611660	     29.25281833	      0.51055800	    -39.74793421	      0.00000000	      0.00000000	     88.33331591	      6.90971838	     -1.17227047	     33.61844997	      0.58675264	    -37.89393989	      0.00000000	      0.00000000	     18.42754735	    -30.58203586	    -10.98893762	    -89.97690354	      2.19892617	    -89.64649031	      0.02553702	      0.24039779	      0.00000000	      0.00000000	     23.62199344	    -61.11774839	     33.04440200	    110.81570241	      7.75878329	      0.00000000	      0.00000000
      1.28888889	    -28.31449915	     12.59607791	      2.86343824	      1.21554260	      0.67260661	      0.16052258	    -12.60731733	    -20.89200613	    -15.12097315	     29.21056245	      0.50982049	    -39.74267125	      0.00000000	      0.00000000	     90.07655369	      8.31906889	     -1.68257202	     32.79462118	      0.57237412	    -38.03113970	      0.00000000	      0.00000000	     19.91822960	    -32.22147258	     -9.54082591	    -89.97271282	      2.29829243	    -89.64620172	      0.02542337	      0.24139753	      0.00000000	      0.00000000	     27.39736472	    -58.18881179	     36.98477933	    109.46280279	      8.08628267	      0.00000000	      0.00000000
      1.29166667	    -30.78326980	     12.15938328	      4.75073557	      1.22006342	      0.67069334	      0.16056742	    -10.70741945	    -20.20339145	    -16.33390466	     29.31612715	      0.51166294	    -39.73766832	      0.00000000	      0.00000000	     91.80006534	      9.36915749	     -1.99738573	     31.94828262	      0.55760272	    -38.20040144	      0.00000000	      0.00000000	     21.53884459	    -33.55823108	     -7.81192458	    -89.96633200	      2.10370396	    -89.64864608	      0.02554920	      0.24502719	      0.00000000	      0.00000000	     30.53773659	    -55.18894129	     40.30327035	    108.09016166	      8.45598587	      0.00000000	      0.00000000
      1.29444444	    -32.45284516	     11.72170642	      5.80715649	      1.22278869	      0.66929541	      0.16055587	     -9.20938045	    -19.70455115	    -16.83563505	     29.51685245	      0.51516626	    -39.73267796	      0.00000000	      0.00000000	     93.00784980	      9.89824385	     -2.07951042	     31.41541027	      0.54830235	    -38.30357663	      0.00000000	      0.00000000	     22.71969092	    -34.24876587	     -6.52530228	    -89.96031290	      1.81652074	    -89.65265727	      0.02569716	      0.24726975	      0.00000000	      0.00000000	     32.29120011	    -53.12354612	     42.20114244	    107.17045091	      8.90541055	      0.00000000	      0.00000000
      1.29722222	    -34.86108354	     10.69370978	      7.50729305	      1.22656647	      0.66713022	      0.16016903	     -7.06657207	    -18.66672896	    -17.87943370	     29.76585821	      0.51951223	    -39.72337692	      0.00000000	      0.00000000	     94.75449156	     10.89648862	     -1.77954495	     30.59259995	      0.53394160	    -38.43032709	      0.00000000	      0.00000000	     24.16778407	    -35.00414528	     -5.16164831	    -89.94659648	      0.99638497	    -89.65745496	      0.02599967	      0.25190782	      0.00000000	      0.00000000	     34.17332649	    -50.12255005	     44.20845143	    106.07867728	      9.03355285	      0.00000000	      0.00000000
      1.30000000	    -37.50811263	      9.43529756	      7.82635169	      1.22897306	      0.66454059	      0.16136396	     -3.66735593	    -17.62186421	    -17.05800770	     30.53037453	      0.53285556	    -39.71184034	      0.00000000	      0.00000000	     96.84448755	     10.47684949	     -1.35616773	     29.90393866	      0.52192219	    -38.63009351	      0.00000000	      0.00000000	     26.64874450	    -34.99689156	     -2.24986497	    -89.92075832	      0.08660252	    -89.66924979	      0.02638032	      0.25632254	      0.00000000	      0.00000000	     36.15188989	    -46.83529145	     46.41485094	    104.63247226	      9.63760375	      0.00000000	      0.00000000
      1.30277778	    -39.69997441	      8.01954614	      8.73949761	      1.23120597	      0.66243445	      0.16108713	     -1.11309499	    -16.48320958	    -17.50973996	     31.14612243	      0.54360239	    -39.69686479	      0.00000000	      0.00000000	     98.48307606	     10.93691466	     -0.56376206	     29.04915812	      0.50700345	    -38.79964230	      0.00000000	      0.00000000	     28.06438676	    -35.08646165	     -0.62323961	    -89.86087093	     -1.35719701	    -89.67946928	      0.02678846	      0.26092649	      0.00000000	      0.00000000	     37.47494920	    -43.75408645	     47.79033246	    103.46660844	      9.94121310	      0.00000000	      0.00000000
      1.30555556	    -41.99711554	      6.49139580	      8.27825849	      1.23208759	      0.66038494	      0.16243479	      2.46848757	    -15.23787930	    -16.20101408	     32.27435445	      0.56329375	    -39.68002154	      0.00000000	      0.00000000	    100.32719108	     10.07995923	      0.47283916	     28.38214353	      0.49536185	    -38.94516858	      0.00000000	      0.00000000	     30.24391800	    -34.41013564	      2.10906899	    -89.67156678	     -3.18805573	    -89.68570473	      0.02727668	      0.26515417	      0.00000000	      0.00000000	     38.30972654	    -40.63095225	     48.52113904	    102.28468376	     10.88360470	      0.00000000	      0.00000000
      1.30833333	    -42.60299653	      5.84014001	      8.65276714	      1.23314125	      0.66049480	      0.16194037	      3.30969062	    -14.83786106	    -16.76027906	     32.70347535	      0.57078332	    -39.67072170	      0.00000000	      0.00000000	    100.54483952	     10.37325328	      0.81525286	     27.78445784	      0.48493027	    -39.00303609	      0.00000000	      0.00000000	     30.07154436	    -34.61150314	      2.92974959	    -89.26378645	     -4.61776849	    -89.68508508	      0.02761256	      0.26815850	      0.00000000	      0.00000000	     38.87489840	    -38.66329237	     48.80011725	    101.57116867	     10.96077279	      0.00000000	      0.00000000
      1.31111111	    -43.80334183	      4.82034990	      8.13741283	      1.23317109	      0.66103435	      0.16332566	      5.73029086	    -14.06292025	    -16.00988522	     33.92478242	      0.59209915	    -39.65252639	      0.00000000	      0.00000000	    101.13735224	      9.71092789	      1.71488374	     26.83009439	      0.46827349	    -39.12139620	      0.00000000	      0.00000000	     30.58843911	    -34.45227509	      4.98800779	    -88.37225132	     -7.18373478	    -89.69191446	      0.02796276	      0.27009301	      0.00000000	      0.00000000	     39.83237067	    -36.07216208	     49.38125035	    100.59907880	     11.83591343	      0.00000000	      0.00000000
